<?xml version="1.0" encoding="UTF-8" standalone="no"?>
<svg
   xmlns:dc="http://purl.org/dc/elements/1.1/"
   xmlns:cc="http://creativecommons.org/ns#"
   xmlns:rdf="http://www.w3.org/1999/02/22-rdf-syntax-ns#"
   xmlns:svg="http://www.w3.org/2000/svg"
   xmlns="http://www.w3.org/2000/svg"
   xmlns:sodipodi="http://sodipodi.sourceforge.net/DTD/sodipodi-0.dtd"
   xmlns:inkscape="http://www.inkscape.org/namespaces/inkscape"
   width="300"
   height="271"
   viewBox="0 0 772 696"
   version="1.0"
   id="svg2"
   sodipodi:version="0.32"
   inkscape:version="0.46"
   sodipodi:docname="Cobra Command Logo.svg"
   inkscape:output_extension="org.inkscape.output.svg.inkscape">
  <metadata
     id="metadata45">
    <rdf:RDF>
      <cc:Work
         rdf:about="">
        <dc:format>image/svg+xml</dc:format>
        <dc:type
           rdf:resource="http://purl.org/dc/dcmitype/StillImage" />
      </cc:Work>
    </rdf:RDF>
  </metadata>
  <defs
     id="defs43">
    <inkscape:perspective
       sodipodi:type="inkscape:persp3d"
       inkscape:vp_x="0 : 435 : 1"
       inkscape:vp_y="0 : 1000 : 0"
       inkscape:vp_z="965 : 435 : 1"
       inkscape:persp3d-origin="482.5 : 290 : 1"
       id="perspective47" />
  </defs>
  <sodipodi:namedview
     inkscape:window-height="669"
     inkscape:window-width="640"
     inkscape:pageshadow="2"
     inkscape:pageopacity="0.0"
     guidetolerance="10.0"
     gridtolerance="10.0"
     objecttolerance="10.0"
     borderopacity="1.0"
     bordercolor="#666666"
     pagecolor="#ffffff"
     id="base"
     showgrid="false"
     inkscape:zoom="0.53103448"
     inkscape:cx="482.5"
     inkscape:cy="435"
     inkscape:window-x="23"
     inkscape:window-y="51"
     inkscape:current-layer="svg2" />
  <g
     id="#ffffffff" />
  <g
     id="#fe0000ff">
    <path
       d="M 313.15,18.22 C 319.82,14.61 327.83,12.52 335.3,14.75 C 341.26,15.75 345.73,20.94 351.94,20.9 C 360.61,21.48 369.27,22.16 377.92,22.91 C 380.86,23.61 382.68,27.25 385.99,26.65 C 387.48,26.72 388.48,25.39 389.66,24.69 C 392.99,21.56 397.9,23 402,22.18 C 409.24,20.95 416.8,21.94 423.89,19.91 C 429.97,16.37 436.78,13.32 443.98,13.83 C 451.64,14.98 459.99,17.77 464.2,24.78 C 469.29,33.19 469.75,43.41 469.56,52.98 C 469.57,59.36 468.22,65.63 467.7,71.97 C 468.47,74.26 471.04,75 473,75.99 C 480.76,78.99 489.01,80.44 496.91,83.02 C 538.32,95.33 578.46,112.27 615.51,134.57 C 648.65,154.55 679.45,178.83 704.88,208.1 C 730.81,238.02 751.29,273.78 758.32,313.1 C 762.33,335.98 761.54,359.8 755.24,382.2 C 744.89,419.49 720.18,451.3 690.6,475.57 C 647.31,510.87 594.98,533.09 541.87,549 C 528.01,552.42 514.97,558.49 502.59,565.52 C 471.51,583.49 444.39,609.96 430.09,643.29 C 424.71,655.81 421.1,669.06 419.23,682.56 C 418.95,684.19 418.64,686.13 417.03,687.02 C 414.99,688.46 411.87,687.08 411.69,684.57 C 410.71,666.21 411.32,647.68 415.03,629.63 C 422.25,593.48 441.59,560.46 467.33,534.34 C 495.83,504.92 530.66,482.91 562.74,457.75 C 578.89,445.07 594.5,431.47 607.46,415.46 C 617.42,402.99 626.16,389.29 631.3,374.1 C 639.49,350.82 639.97,324.94 632.96,301.3 C 628.1,285.1 619.61,270.14 608.82,257.17 C 584.35,227.75 553.21,204.31 519.5,186.45 C 501.51,177.18 482.51,169.41 462.5,165.85 C 459.24,165.15 455.48,164.46 453.52,161.44 C 452.02,158.94 451.79,155.87 451.74,153.02 C 452.33,142.87 454.68,132.94 456.47,122.98 C 456.46,118.78 456.57,113.11 452.07,111.12 C 446.67,114.74 444.21,120.98 441.41,126.56 C 435.09,140.76 430.5,155.76 427.9,171.09 C 427.01,175.79 428.1,180.63 427.13,185.31 C 425.98,190.12 420.7,192.89 416.01,192.32 C 410.74,191.58 405.79,189.55 400.75,187.95 C 393.2,185.76 385.14,184.48 377.37,186.24 C 369.66,187.4 362.61,191.04 354.95,192.34 C 350.17,193.16 344.93,190.19 343.58,185.47 C 342.82,180.71 343.67,175.85 342.78,171.1 C 341.04,159.56 337.71,148.31 333.7,137.36 C 330.71,129.42 327.44,121.45 322.53,114.46 C 321.36,112.65 319.3,111.79 317.33,111.16 C 313.2,116.26 314.04,123.36 315.41,129.32 C 317.23,138.76 319.52,148.37 318.49,158.04 C 318.25,161.21 315.69,163.83 312.72,164.68 C 308.01,166.11 303.09,166.7 298.33,167.94 C 267.88,175.82 239.88,191.21 214.25,209.15 C 189.71,226.93 166.74,247.78 150.24,273.41 C 139.84,290.42 133.77,310.07 132.96,330.01 C 131.76,354.07 138.42,378.37 151.28,398.71 C 164.49,419.89 182.64,437.5 202.05,452.98 C 232.31,477.49 265.5,498.37 293.98,525.06 C 309.06,539.15 322.65,554.97 333.3,572.68 C 342.38,587.8 349.38,604.18 353.81,621.26 C 358.89,641.71 360.38,662.97 359.04,683.97 C 359.18,686.61 356.12,688.58 353.83,687.17 C 351.27,685.51 351.47,682.18 350.96,679.54 C 345.83,643.64 326.24,610.55 298.67,587.25 C 281.88,572.72 262.6,561.05 241.92,552.95 C 235.57,550.8 229.07,549.18 222.68,547.16 C 181.28,534.29 140.73,517.51 104.44,493.53 C 79.23,476.77 56.06,456.31 38.8,431.26 C 23.38,409.04 13.14,383.03 10.58,356.02 C 10.26,349.02 9.21,342 10.1,335 C 11.27,301.31 23.66,268.81 41.56,240.55 C 63.56,206.12 93.41,177.25 126.45,153.47 C 170.76,121.76 220.94,98.81 273.05,83.26 C 280.99,80.57 289.3,79.11 297.18,76.23 C 299.14,75.34 301.41,74.55 302.65,72.67 C 302.82,70.54 302.64,68.4 302.4,66.29 C 300.96,57.36 300.93,48.25 301.69,39.26 C 302.85,31.28 305.79,22.53 313.15,18.22 M 311.44,33.39 C 307.86,40.74 307.59,49.5 309.85,57.28 C 310.29,59.53 312.82,58.6 314.4,58.55 C 315.7,53.6 315.13,48.24 317.52,43.57 C 321.15,35.16 329.77,30.27 338.36,28.31 C 339.14,26.6 339.69,24.52 338.22,22.98 C 328.41,18.73 316.32,24.27 311.44,33.39 M 432.37,23.43 C 431.22,24.01 431.24,25.44 431.53,26.5 C 433,29.42 436.78,29.19 439.34,30.63 C 447.93,33.96 454.59,42.13 455.29,51.43 C 455.69,53.92 454.84,57.11 457.39,58.68 C 458.42,58.74 459.46,58.73 460.5,58.65 C 462.87,51.24 463.07,43.02 460.27,35.69 C 457.91,29.23 452.18,24.29 445.58,22.5 C 441.32,21.24 436.17,20.63 432.37,23.43 M 354.08,34.93 C 345.27,36.99 336.07,39.93 329.66,46.66 C 323.4,53.43 322.36,63.2 322.58,72.02 C 322.82,75.71 322.32,79.62 323.82,83.11 C 337.56,109.14 345.52,137.64 354.38,165.58 C 355.36,169.5 355.57,173.56 356.45,177.51 C 357.92,177.81 359.4,178.66 360.95,178.26 C 368.03,176.78 374.68,173.45 381.99,173.05 C 391.4,171.87 400.26,175.77 409.15,178.12 C 410.96,178.87 412.75,177.99 414.42,177.31 C 415.03,171.44 416,165.59 418.13,160.07 C 425.6,135.68 433.09,111.13 444.29,88.13 C 449.88,79.57 448.71,68.63 447.04,59.04 C 445.76,50.84 439.96,44.03 432.64,40.42 C 418.24,33.41 401.78,31.82 385.99,33.26 C 375.36,32.6 364.51,32.36 354.08,34.93 z"
       id="path6"
       style="opacity:1;fill:#fe0000" />
    <path
       d="M 369.75,41.95 C 388.14,39.93 407.06,41.33 424.62,47.39 C 427.96,48.7 431.66,49.31 434.67,51.34 C 439.28,64.06 437.32,77.98 434.61,90.9 C 430.91,106.74 424.42,121.77 417.16,136.27 C 414.19,141.27 411.89,146.74 408.1,151.2 C 408.23,149.61 408.27,148 408.78,146.48 C 417.06,122.55 423.52,97.5 422.85,72 C 422.73,67.87 423.08,63.63 422.11,59.59 C 419.96,55.4 414.94,54.12 410.73,53.05 C 400.34,50.47 389.59,51.5 379.01,51.26 C 371.55,51.12 364.03,51.75 356.83,53.79 C 353.9,54.91 350.71,56.13 348.74,58.7 C 347.91,61.13 347.68,63.72 347.53,66.27 C 346.39,90.95 351.61,115.5 359.18,138.88 C 360.4,142.95 362.34,146.86 362.75,151.15 C 361.12,149.74 359.83,147.99 358.85,146.09 C 347.06,125.2 337.04,102.8 333.72,78.86 C 333.07,69.54 332.57,59.83 335.89,50.91 C 346.82,46.74 358.1,43.33 369.75,41.95 z"
       id="path8"
       style="opacity:1;fill:#fe0000" />
    <path
       d="M 253.37,200.34 C 255.71,198.89 257.99,196.8 260.95,197.16 C 283.57,197.26 306.2,197.01 328.82,197.29 C 323.74,206.93 319.11,216.78 314.77,226.78 C 313.43,228.97 310.2,228.03 308.02,228.29 C 279.68,228.2 251.33,228.27 222.98,228.26 C 220.94,228.24 218.89,228.13 216.86,227.94 C 228.08,217.57 240.72,208.85 253.37,200.34 z"
       id="path10"
       style="opacity:1;fill:#fe0000" />
    <path
       d="M 442.89,197.28 C 465.6,197.02 488.33,197.25 511.05,197.17 C 513.74,196.83 515.73,198.83 517.84,200.13 C 527.49,206.36 536.76,213.14 545.78,220.23 C 548.81,222.68 551.93,225.07 554.53,228 C 537.7,228.57 520.84,228.09 504,228.25 C 489,228.19 474,228.35 459.01,228.19 C 456.67,228.24 456.29,225.37 455.34,223.79 C 451.79,214.67 447.06,206.11 442.89,197.28 z"
       id="path12"
       style="opacity:1;fill:#fe0000" />
    <path
       d="M 200.05,243.04 C 201.39,241.07 203.85,241.41 205.92,241.38 C 240.25,241.51 274.58,241.27 308.91,241.51 C 305.12,252.76 302.16,264.24 298.91,275.64 C 256.88,275.54 214.86,275.72 172.84,275.55 C 180.53,263.66 190.12,253.1 200.05,243.04 z"
       id="path14"
       style="opacity:1;fill:#fe0000" />
    <path
       d="M 462.94,241.46 C 498.48,241.45 534.05,241.25 569.58,241.55 C 580.73,251.57 590.34,263.32 598.91,275.61 C 556.77,275.59 514.63,275.7 472.49,275.56 C 469.92,266.23 467.73,256.78 464.52,247.64 C 463.8,245.63 463.3,243.56 462.94,241.46 z"
       id="path16"
       style="opacity:1;fill:#fe0000" />
    <path
       d="M 164.1,289.18 C 208.04,289.14 251.98,289.09 295.92,289.2 C 295.4,296.17 293.82,303 293.09,309.94 C 292.54,314.22 292.36,318.55 291.55,322.8 C 287.38,323.26 283.19,323.13 279,323.12 C 238.99,323.14 198.99,323.1 158.98,323.14 C 156.71,323.13 154.44,322.95 152.17,322.78 C 154.21,310.97 158.79,299.85 164.1,289.18 z"
       id="path18"
       style="opacity:1;fill:#fe0000" />
    <path
       d="M 475.34,289.29 C 503.55,288.95 531.78,289.24 560,289.15 C 575.82,289.24 591.65,288.94 607.47,289.31 C 612.67,299.92 617.73,310.96 619.05,322.84 C 602.72,323.51 586.35,322.94 570,323.13 C 543.67,323.13 517.34,323.11 491,323.14 C 487.23,323.23 483.46,323.01 479.71,322.67 C 479.04,311.45 477.18,300.36 475.34,289.29 z"
       id="path20"
       style="opacity:1;fill:#fe0000" />
    <path
       d="M 480.96,336.55 C 527.51,336.6 574.06,336.52 620.61,336.59 C 620.86,346.45 619.01,356.3 615.62,365.55 C 615.09,366.67 614.67,368.6 613,368.28 C 568.9,368.28 524.8,368.24 480.69,368.3 C 480.95,357.72 480.54,347.12 480.96,336.55 z"
       id="path22"
       style="opacity:1;fill:#fe0000" />
    <path
       d="M 150.72,336.65 C 197.41,336.47 244.11,336.55 290.8,336.62 C 290.46,347.13 290.75,357.65 290.75,368.17 C 246.82,368.38 202.89,368.25 158.96,368.24 C 155.77,368.29 155.76,364.4 154.8,362.21 C 151.97,353.97 151.11,345.31 150.72,336.65 z"
       id="path24"
       style="opacity:1;fill:#fe0000" />
    <path
       d="M 162.99,381.56 C 205.81,381.35 248.62,381.49 291.43,381.49 C 292.52,386.37 292.72,391.36 293.33,396.31 C 293.87,402.98 295.75,409.5 295.65,416.23 C 260.11,416.09 224.56,416.24 189.01,416.16 C 187.38,416.28 186.19,415.04 185.24,413.9 C 176.78,403.9 168.97,393.25 162.99,381.56 z"
       id="path26"
       style="opacity:1;fill:#fe0000" />
    <path
       d="M 479.72,381.52 C 522.53,381.45 565.34,381.37 608.15,381.56 C 602.47,394.2 593.71,405.25 584.65,415.63 C 548.52,415.61 512.38,415.76 476.25,415.56 L 475.65,414.92 C 477.24,403.81 478.97,392.72 479.72,381.52 z"
       id="path28"
       style="opacity:1;fill:#fe0000" />
    <path
       d="M 200.1,429.34 C 232.94,429.15 265.79,429.23 298.64,429.29 C 301.06,440.61 303.95,451.81 306.86,463.01 C 285.55,463.33 264.23,463.05 242.91,463.14 C 239.63,463.46 237.28,460.91 234.89,459.12 C 222.82,449.76 211.03,440.01 200.1,429.34 z"
       id="path30"
       style="opacity:1;fill:#fe0000" />
    <path
       d="M 473.05,429.27 C 505.77,429.31 538.5,429.05 571.22,429.4 C 561.04,439.91 549.43,448.92 538.03,458.06 C 535,460.22 532.19,463.62 528.07,463.15 C 507.04,462.97 485.98,463.5 464.97,462.84 C 465.96,457.72 467.25,452.66 468.68,447.65 C 470.35,441.57 471.24,435.31 473.05,429.27 z"
       id="path32"
       style="opacity:1;fill:#fe0000" />
    <path
       d="M 259.27,476.75 C 276.53,476.26 293.81,476.69 311.07,476.56 C 314.82,486.98 318.25,497.51 322.63,507.7 C 315.42,507.73 308.22,507.77 301.03,507.73 C 298.89,508.01 297.39,506.29 295.83,505.17 C 287.19,498.07 278.16,491.45 269.2,484.77 C 265.83,482.18 262.16,479.91 259.27,476.75 z"
       id="path34"
       style="opacity:1;fill:#fe0000" />
    <path
       d="M 449.33,508.11 C 452.55,497.48 457.12,487.3 460.3,476.65 C 477.7,476.55 495.11,476.37 512.51,476.72 C 501.31,486.25 488.84,494.21 477.57,503.69 C 475.25,505.41 473.2,508.09 470.07,508.16 C 463.16,508.24 456.24,508.21 449.33,508.11 z"
       id="path36"
       style="opacity:1;fill:#fe0000" />
    <path
       d="M 314.85,521.47 C 319.39,521.25 323.93,521.27 328.47,521.4 C 332.42,530.25 336.84,538.89 341.36,547.45 C 341.71,549.09 342.93,552.99 339.99,552.5 C 337.44,550.82 336.22,547.89 334.58,545.44 C 329.1,536.59 322.04,528.92 314.85,521.47 z"
       id="path38"
       style="opacity:1;fill:#fe0000" />
    <path
       d="M 443.24,521.32 C 447.79,521.3 452.35,521.35 456.9,521.37 C 448.68,529.76 440.65,538.54 434.92,548.87 C 433.93,551.02 431.92,552.47 429.56,552.65 C 429.53,550.32 429.58,547.88 430.9,545.86 C 435.41,537.88 439.23,529.55 443.24,521.32 z"
       id="path40"
       style="opacity:1;fill:#fe0000" />
  </g>
</svg>
